<?xml version="1.0" encoding="UTF-8" standalone="no"?>
<!-- Created with Inkscape (http://www.inkscape.org/) -->

<svg
   width="210mm"
   height="297mm"
   viewBox="0 0 793.70081 1122.5197"
   version="1.1"
   id="svg1"
   sodipodi:docname="新入生歓迎会-チラシ.svg"
   inkscape:version="1.3.2 (091e20e, 2023-11-25, custom)"
   inkscape:export-filename="新入生歓迎会-チラシ.png"
   inkscape:export-xdpi="96"
   inkscape:export-ydpi="96"
   xmlns:inkscape="http://www.inkscape.org/namespaces/inkscape"
   xmlns:sodipodi="http://sodipodi.sourceforge.net/DTD/sodipodi-0.dtd"
   xmlns:xlink="http://www.w3.org/1999/xlink"
   xmlns="http://www.w3.org/2000/svg"
   xmlns:svg="http://www.w3.org/2000/svg">
  <sodipodi:namedview
     id="namedview1"
     pagecolor="#ffffff"
     bordercolor="#000000"
     borderopacity="0.25"
     inkscape:showpageshadow="2"
     inkscape:pageopacity="0.0"
     inkscape:pagecheckerboard="0"
     inkscape:deskcolor="#d1d1d1"
     inkscape:document-units="mm"
     inkscape:zoom="0.30992466"
     inkscape:cx="459.78916"
     inkscape:cy="700.17016"
     inkscape:window-width="1280"
     inkscape:window-height="730"
     inkscape:window-x="-6"
     inkscape:window-y="-6"
     inkscape:window-maximized="1"
     inkscape:current-layer="layer1" />
  <defs
     id="defs1">
    <linearGradient
       id="linearGradient22"
       inkscape:collect="always">
      <stop
         style="stop-color:#0f01ff;stop-opacity:0.5;"
         offset="0"
         id="stop22" />
      <stop
         style="stop-color:#ff0047;stop-opacity:1;"
         offset="1"
         id="stop23" />
    </linearGradient>
    <rect
       x="18.897632"
       y="18.897609"
       width="755.90551"
       height="1084.7244"
       id="rect4" />
    <rect
       x="18.897632"
       y="18.897609"
       width="755.90551"
       height="1084.7244"
       id="rect3" />
    <rect
       x="18.897632"
       y="18.897609"
       width="755.90551"
       height="1084.7244"
       id="rect2" />
    <linearGradient
       inkscape:collect="always"
       xlink:href="#linearGradient22"
       id="linearGradient21"
       x1="196.2128"
       y1="539.45844"
       x2="772.6427"
       y2="40.498436"
       gradientUnits="userSpaceOnUse" />
  </defs>
  <g
     inkscape:label="Layer 1"
     inkscape:groupmode="layer"
     id="layer1">
    <rect
       style="fill:#ffffff;stroke-width:0.95933"
       id="rect1"
       width="755.90552"
       height="1084.7245"
       x="18.897633"
       y="18.89761" />
    <rect
       style="fill:#ffffff"
       id="rect17"
       width="576.42993"
       height="498.95999"
       x="196.2128"
       y="40.498436" />
    <g
       id="text2"
       style="font-size:144px;font-family:'M PLUS 2';-inkscape-font-specification:'M PLUS 2, ';white-space:pre;display:inline;fill:url(#linearGradient21);fill-opacity:1"
       aria-label="オープン&#10;ソース&#10;推進部">
      <path
         style="font-weight:900;-inkscape-font-specification:'M PLUS 2 Heavy';text-align:end;text-anchor:end;fill:url(#linearGradient21);fill-opacity:1"
         d="m 208.88273,136.97844 q 12.096,-6.336 24.192,-14.688 12.096,-8.352 23.616,-18.288 11.664,-9.936002 22.032,-21.024003 l 19.44,14.4 q -12.096,13.248003 -24.336,24.336003 -12.096,10.944 -24.768,20.016 -12.672,9.072 -26.496,16.848 z m 70.56,36 q -3.456,0 -6.624,-0.144 -3.168,-0.144 -7.2,-0.432 -3.888,-0.288 -9.936,-0.864 l 1.44,-23.76 q 5.184,0.432 8.784,0.864 3.744,0.288 6.336,0.432 2.592,0.144 4.32,0.144 4.032,0 6.048,-0.288 2.016,-0.432 2.592,-1.44 0.72,-1.152 0.72,-3.312 V 44.818437 h 26.64 v 99.360003 q 0,9.792 -1.008,15.552 -1.008,5.76 -4.32,8.64 -3.312,2.88 -9.936,3.744 -6.624,0.864 -17.856,0.864 z m -71.28,-82.080003 v -23.76 h 129.6 v 23.76 z m 146.16,34.560003 V 98.098438 h 120.96 v 27.360002 z m 153.36,20.88 q 40.032,-1.872 58.896,-20.16 18.864,-18.432 18.864,-55.440002 l 13.68,14.399999 h -102.24 V 59.218438 h 103.68 v 11.52 h 12.96 q 0,32.112002 -11.376,54.288002 -11.376,22.032 -33.84,33.84 -22.464,11.664 -55.584,12.672 z m 100.8,-62.640003 q -5.904,0 -10.944,-2.88 -4.896,-2.879999 -7.776,-7.775999 -2.88,-5.040001 -2.88,-10.944 0,-6.048001 2.88,-10.944001 2.88,-4.896 7.776,-7.775999 5.04,-2.880001 10.944,-2.880001 6.048,0 10.944,2.880001 4.896,2.879999 7.776,7.775999 2.88,4.896 2.88,10.944001 0,5.903999 -2.88,10.944 -2.88,4.896 -7.776,7.775999 -4.896,2.88 -10.944,2.88 z m 0,-15.12 q 2.736,0 4.608,-1.872 1.872,-2.016 1.872,-4.607999 0,-2.736001 -1.872,-4.608001 -1.872,-1.872 -4.608,-1.872 -2.736,0 -4.608,1.872 -1.872,1.872 -1.872,4.608001 0,2.735999 1.872,4.607999 2.016,1.872 4.608,1.872 z m 39.6,75.600003 q 21.168,-2.16 37.008,-7.2 15.84,-5.184 26.928,-13.968 11.232,-8.928 18.432,-22.032 7.2,-13.104003 11.232,-30.960003 l 25.92,5.76 q -5.328,29.664003 -19.584,49.824003 -14.112,20.016 -37.872,31.248 -23.616,11.088 -57.744,13.968 z m 42.624,-42.192 q -11.52,-7.344003 -23.76,-13.824003 -12.24,-6.624 -24.624,-12.095999 l 14.976,-23.328 q 12.816,5.328 25.056,11.951999 12.24,6.48 24.048,13.968001 z"
         id="path17" />
      <path
         style="font-weight:900;-inkscape-font-specification:'M PLUS 2 Heavy';text-align:end;text-anchor:end;fill:url(#linearGradient21);fill-opacity:1"
         d="m 374.48273,324.17844 q 17.568,-1.728 30.384,-5.328 12.816,-3.744 21.312,-10.08 8.64,-6.48 13.68,-16.416 5.184,-9.936 7.344,-24.048 2.16,-14.256 2.16,-33.408 l 27.36,1.44 q 0,29.232 -5.184,49.824 -5.04,20.592 -16.416,33.696 -11.232,13.104 -29.952,20.16 -18.576,7.056 -45.648,9.36 z m -1.584,-26.64 q -4.896,-12.096 -10.8,-25.344 -5.76,-13.248 -12.096,-25.776 l 25.056,-10.8 q 6.336,11.952 12.528,25.488 6.192,13.536 11.232,26.352 z m 125.424,7.92 v -27.36 h 120.96 v 27.36 z m 142.56,22.896 q 19.008,-8.352 34.704,-19.296 15.84,-11.088 28.224,-24.624 12.528,-13.536 21.6,-29.376 l 8.352,6.48 h -82.8 v -25.2 h 101.808 v 25.2 q -9.648,19.296 -24.912,36.576 -15.12,17.136 -34.272,30.96 -19.008,13.68 -40.464,22.464 z m 104.544,23.184 q -8.064,-9.648 -16.128,-17.28 -7.92,-7.776 -16.416,-14.112 -8.496,-6.48 -18.144,-11.952 l 18.144,-19.44 q 13.68,7.776 26.64,18.864 13.104,10.944 25.344,25.2 z"
         id="path18" />
      <path
         style="font-weight:900;-inkscape-font-specification:'M PLUS 2 Heavy';text-align:end;text-anchor:end;fill:url(#linearGradient21);fill-opacity:1"
         d="m 399.68273,539.45844 v -100.08 h 25.92 v 13.68 h 54 v 18.72 h -54 v 10.8 h 54 v 18.72 h -54 v 10.8 h 13.68 v -69.84 h -18 v -20.88 h 59.76 v 20.88 h -17.28 v 69.84 h 18.72 v 20.16 h -56.88 v 7.2 z m -49.68,-40.32 -1.44,-23.04 q 7.056,-1.008 15.408,-2.448 8.352,-1.584 16.56,-3.312 8.208,-1.872 14.832,-3.6 l 2.88,22.32 q -6.624,1.872 -15.408,3.888 -8.784,1.872 -17.568,3.6 -8.64,1.584 -15.264,2.592 z m 14.4,38.88 q -1.44,0 -5.04,-0.288 -3.6,-0.144 -8.64,-0.432 l -1.44,-20.88 q 3.744,0.288 6.768,0.576 3.024,0.144 4.032,0.144 0.72,0 1.008,-0.144 0.288,-0.288 0.288,-1.296 0.144,-1.008 0.144,-3.6 v -63.36 h -12.96 v -21.6 h 12.96 v -21.6 h 25.2 v 21.6 h 9.36 v 21.6 h -9.36 v 60.48 q 0,10.08 -0.72,15.84 -0.576,5.904 -2.88,8.64 -2.16,2.736 -6.624,3.456 -4.464,0.864 -12.096,0.864 z m 42.48,-57.6 -19.44,-18 q 6.192,-10.368 11.664,-24.912 5.616,-14.688 10.656,-34.848 l 24.48,3.6 q -2.16,10.368 -4.896,19.872 -2.736,9.504 -6.048,18.576 l -0.576,1.584 q -3.168,8.784 -7.2,17.28 -4.032,8.352 -8.64,16.848 z m 56.16,-46.8 -23.04,-2.88 q 2.016,-6.336 3.888,-13.248 1.872,-7.056 3.312,-14.832 l 23.04,2.88 q -1.44,7.776 -3.312,14.832 -1.872,6.912 -3.888,13.248 z m 73.44,76.32 v -72.72 h 25.92 v 8.64 h 56.16 v 16.56 h -56.16 v 5.76 h 56.16 v 16.56 h -56.16 v 5.76 h 12.96 v -50.4 h -15.84 v -20.16 h 61.92 v 20.16 h -21.6 v 50.4 h 23.76 v 19.44 z m -34.56,29.52 -12.24,-20.16 q 8.064,-4.896 15.264,-10.08 7.2,-5.184 14.256,-11.52 l 14.4,16.56 q -6.912,6.912 -14.544,12.816 -7.632,6.048 -17.136,12.384 z m 2.16,-28.08 v -31.68 h -11.52 v -21.6 h 36.72 v 53.28 z m 87.84,25.92 q -19.152,0 -32.688,-1.008 -13.392,-0.864 -22.464,-3.168 -8.928,-2.16 -14.544,-5.904 -5.616,-3.744 -8.784,-9.216 -3.168,-5.616 -5.04,-13.104 h 20.88 q 1.728,2.736 3.744,4.608 2.16,1.872 5.904,3.168 3.744,1.152 10.08,1.872 6.48,0.576 16.704,0.864 10.224,0.288 25.488,0.288 h 34.56 l -1.44,21.6 z m -73.44,-86.4 q -6.192,-6.912 -12.96,-13.968 -6.624,-7.056 -12.96,-13.392 l 17.28,-15.84 q 6.192,6.336 12.672,13.392 6.624,7.056 12.528,13.968 z m 27.36,19.44 -23.04,-11.52 q 6.912,-13.536 11.952,-26.784 5.04,-13.248 8.928,-27.936 l 23.76,2.88 q -1.872,9.216 -4.032,17.712 -2.16,8.496 -5.04,16.56 l -1.008,2.88 q -2.448,6.624 -5.328,13.248 -2.88,6.48 -6.192,12.96 z m 53.28,-36 -23.76,-2.16 q 2.016,-6.336 3.888,-13.248 1.872,-7.056 3.312,-14.832 l 23.76,2.16 q -1.44,7.776 -3.312,14.832 -1.872,6.912 -3.888,13.248 z m 113.04,103.68 v -129.6 h 59.04 v 20.16 h -33.84 v 109.44 z m -73.44,0 v -56.88 h 67.68 v 56.88 h -24.48 v -4.32 h -17.28 v -20.16 h 17.28 v -11.52 h -17.28 v 36 z m 8.64,-78.48 q -1.44,-6.912 -3.168,-14.112 -1.728,-7.344 -3.312,-13.248 l 22.32,-4.32 q 1.728,6.336 3.312,13.68 1.728,7.2 3.168,14.4 z m -12.24,15.84 v -21.6 h 73.44 v 21.6 z m 61.92,-15.84 -21.6,-3.6 q 1.584,-6.48 3.168,-13.68 1.584,-7.2 2.592,-13.68 l 22.32,2.88 q -1.296,6.768 -3.024,14.112 -1.584,7.2 -3.456,13.968 z m -60.48,-24.48 v -20.88 h 21.6 v -10.8 h 26.64 v 10.8 h 22.32 v 20.88 z m 105.12,88.56 -5.04,-21.6 h 1.44 q 4.032,0 5.904,-0.72 2.016,-0.72 2.736,-2.592 0.72,-1.872 0.72,-5.328 0,-3.888 -1.152,-7.776 -1.152,-3.888 -4.176,-8.928 -2.88,-5.04 -8.352,-12.096 2.448,-4.752 4.752,-11.088 2.448,-6.48 4.32,-13.248 2.016,-6.912 3.168,-13.104 l 25.2,1.44 q -1.296,5.184 -3.456,11.664 -2.16,6.48 -4.464,12.816 -2.304,6.192 -4.32,10.8 6.336,6.48 9.936,15.408 3.744,8.784 3.744,16.992 0,15.264 -5.328,21.312 -5.184,6.048 -16.272,6.048 z"
         id="path19" />
    </g>
    <text
       xml:space="preserve"
       id="text3"
       style="font-style:normal;font-variant:normal;font-weight:900;font-stretch:normal;font-size:32px;font-family:'M PLUS 2';-inkscape-font-specification:'M PLUS 2 Heavy';text-align:end;white-space:pre;shape-inside:url(#rect3);display:inline;fill:#000000"
       transform="translate(1.4847908,1045.3762)"><tspan
         x="418.55273"
         y="51.058437"
         id="tspan2"><tspan
           style="font-weight:bold;font-family:'Cascadia Mono';-inkscape-font-specification:'Cascadia Mono Bold'"
           id="tspan1">example@example.com</tspan></tspan></text>
    <text
       xml:space="preserve"
       id="text4"
       style="font-style:normal;font-variant:normal;font-weight:normal;font-stretch:normal;font-size:32px;font-family:'Noto Emoji';-inkscape-font-specification:'Noto Emoji';text-align:end;white-space:pre;shape-inside:url(#rect4);display:inline;fill:#000000"
       transform="translate(-355.3865,1051.8683)"><tspan
         x="730.86523"
         y="47.722579"
         id="tspan3">✉</tspan></text>
  </g>
</svg>
